<?xml version="1.0" encoding="UTF-8"?>
<svg id="_Слой_1" data-name="Слой 1" xmlns="http://www.w3.org/2000/svg" viewBox="0 0 1018.51 1015.75">
  <defs>
    <style>
      .cls-1 {
        fill: #fff;
      }
    </style>
  </defs>
  <path class="cls-1" d="M486.12,1015.25c-45.44,0-93.52-9.17-142.94-27.26l.83-368.15L692.58,36.01c23.13,7.6,46.68,18.33,71.96,32.77l-330.65,555.01h295.99l-232.64,391.26c-3.67.12-7.42.19-11.13.19ZM587.35,1008.41c-.76,0-1.52,0-2.27-.02l275.88-460.12h-296L823.12,110.57s.09-.02.17-.02c3.03,0,16.22,10.61,22.13,15.74,35.93,31.21,67,66.77,92.36,105.7,24.28,37.28,43.4,77.77,56.85,120.34,25.88,81.96,30.36,170.72,12.96,256.67-17.43,86.05-56.15,166.2-112,231.77-28.98,34.03-62.38,63.92-99.26,88.84-38.51,26.02-80.96,46.7-126.17,61.46-24.73,8.08-56.49,17.34-82.79,17.34h0ZM267.59,954.99c-107.98-57.39-191.29-152.77-234.64-268.66-43.47-116.21-43.23-243.64.68-358.82C76.46,215.13,161.71,118.51,267.59,62.29v892.7ZM343.31,27.42C400.17,9.56,458.36.5,516.25.5c12.56,0,25.24.44,37.71,1.29,10.43.72,62,8.31,64.19,12.37l-274.84,458.27V27.42Z"/>
  <path d="M516.25,1c12.54,0,25.22.43,37.67,1.29,4.28.29,19.84,2.32,34.48,4.82,23.33,3.99,28.13,6.33,29.11,7.13l-273.7,456.38V27.79C400.51,10.01,458.52,1,516.25,1M692.8,36.61c22.85,7.54,46.1,18.13,71.05,32.35l-329.94,553.82-.9,1.51h296l-232.05,390.27c-3.58.12-7.22.18-10.84.18-45.27,0-93.19-9.12-142.44-27.11l.83-367.66L692.8,36.61M267.09,63.12v891.04c-107.51-57.38-190.46-152.49-233.67-268.01-43.43-116.09-43.19-243.4.67-358.47,21.36-56.05,52.79-107.79,93.39-153.76,40.29-45.62,87.25-82.89,139.6-110.8M823.41,111.05c2.74.28,14.26,9.17,21.68,15.61,35.9,31.18,66.94,66.71,92.27,105.6,24.25,37.24,43.36,77.69,56.79,120.22,25.86,81.88,30.33,170.55,12.94,256.42-17.41,85.97-56.1,166.04-111.89,231.55-28.95,33.99-62.31,63.85-99.16,88.75-38.48,25.99-80.88,46.65-126.05,61.39-24.7,8.06-56.41,17.32-82.64,17.32-.47,0-.93,0-1.39,0l274.98-458.62.91-1.51h-296.01L823.41,111.05M516.25,0C457.34,0,398.89,9.4,342.81,27.06v447.18L618.69,14.22c-1-4.62-55.88-12.31-64.7-12.92C541.41.43,528.81,0,516.25,0h0ZM692.36,35.41l-348.84,584.29-.83,368.63c45.63,16.74,94.58,27.41,143.44,27.41,3.81,0,7.61-.06,11.42-.2l233.23-392.25h-295.99L765.23,68.6c-23.06-13.21-47.41-24.86-72.87-33.19h0ZM268.09,61.46C161.41,117.86,76.15,214.56,33.16,327.33c-90.89,238.46,10.78,509.83,234.93,628.49V61.46h0ZM823.29,110.05c-.22,0-.4.05-.53.15l-258.67,438.58h295.99l-275.86,460.1c1.04.03,2.08.04,3.14.04,26.33,0,57.65-9.11,82.95-17.37,371.09-121.15,470.91-609,175.45-865.63-2.91-2.53-18.75-15.87-22.46-15.87h0Z"/>
</svg>